<svg xmlns="http://www.w3.org/2000/svg" viewBox="0 0 259.24 75.18"><defs><style>.cls-1{fill:#111;}.cls-2{fill:#27dad1;}.cls-3{fill:#7827da;}.cls-4{fill:#ad27da;}.cls-5{fill:#27adda;}.cls-6{fill:#2740da;}</style></defs><title>Asset 6</title><g id="Layer_2" data-name="Layer 2"><g id="Layer_1-2" data-name="Layer 1"><path class="cls-1" d="M103.63,22.14Q109,26.55,109,36.77V70.88a2.46,2.46,0,0,1-2.46,2.46H96.87a2.46,2.46,0,0,1-2.46-2.46V40.3a15.3,15.3,0,0,0-1.13-6.57q-2.09-4.18-7.92-4.19-7.17,0-9.84,6.13a21.27,21.27,0,0,0-1.38,8.27V70.88a2.46,2.46,0,0,1-2.46,2.46H62.39a2.46,2.46,0,0,1-2.45-2.46V21.59a2.46,2.46,0,0,1,2.45-2.46h8.84a2.46,2.46,0,0,1,2.46,2.46v1a1.47,1.47,0,0,0,2.6.94A16.85,16.85,0,0,1,78.85,21a17.87,17.87,0,0,1,11.06-3.28Q98.3,17.74,103.63,22.14Z"/><path class="cls-1" d="M168.53,25.56q6.09,7.73,6.09,19.93,0,12.65-6,21t-16.77,8.32q-6.76,0-10.87-2.69a15.08,15.08,0,0,1-2.75-2.4,1.47,1.47,0,0,0-2.56,1v.2a2.46,2.46,0,0,1-2.45,2.46h-9.09a2.46,2.46,0,0,1-2.46-2.46V2.46A2.46,2.46,0,0,1,124.12,0h9.29a2.46,2.46,0,0,1,2.45,2.46v19.6a1.47,1.47,0,0,0,2.52,1,17.25,17.25,0,0,1,13.28-5.25Q162.43,17.84,168.53,25.56ZM156.66,58.64q3.06-4.44,3.07-11.66a26.24,26.24,0,0,0-1.51-9.57q-2.86-7.17-10.55-7.17t-10.7,7a26.23,26.23,0,0,0-1.51,9.66,20.11,20.11,0,0,0,3.12,11.56q3.1,4.57,9.49,4.58A9.85,9.85,0,0,0,156.66,58.64Z"/><path class="cls-1" d="M193.43,56a2.45,2.45,0,0,1,2.39,1.88,7.42,7.42,0,0,0,1.63,3.5q2.66,2.84,9.81,2.84A15,15,0,0,0,213.94,63a4,4,0,0,0,2.48-3.73,4,4,0,0,0-2-3.64q-2-1.24-14.86-4.29-9.25-2.28-13-5.72t-3.79-9.77a17,17,0,0,1,5.92-12.93q5.91-5.4,16.65-5.4,10.19,0,16.6,4.06,5.43,3.43,7,11.1a2.47,2.47,0,0,1-2.42,2.92h-9.33a2.45,2.45,0,0,1-2.36-1.77,7,7,0,0,0-1.22-2.56c-1.57-1.93-4.23-2.89-8-2.89-3.09,0-5.3.48-6.61,1.44a4.16,4.16,0,0,0-2,3.39,3.71,3.71,0,0,0,2.1,3.54q2.1,1.14,14.83,3.93,8.48,2,12.72,6a13.73,13.73,0,0,1,4.18,10.21,16.45,16.45,0,0,1-6,13.18q-6,5.12-18.59,5.11-12.82,0-18.94-5.41a17.29,17.29,0,0,1-5.94-11A2.46,2.46,0,0,1,183.72,56Z"/><path class="cls-2" d="M34.7,52.78,7.93,74.11A4.89,4.89,0,0,1,0,70.28V63.89A4.87,4.87,0,0,1,2,60L22.09,45a4.9,4.9,0,0,0,0-7.86L2,22.32a4.9,4.9,0,0,1-2-3.93V12A4.89,4.89,0,0,1,7.94,8.15L34.72,29.58a9.76,9.76,0,0,1,3.67,7.63v7.93A9.77,9.77,0,0,1,34.7,52.78Z"/><path class="cls-3" d="M34.7,52.78,7.93,74.11C4.73,76.66,22.09,45,22.09,45,24.72,43.06,37,50.93,34.7,52.78Z"/><path class="cls-4" d="M7.93,74.11A4.89,4.89,0,0,1,0,70.28V63.89A4.87,4.87,0,0,1,2,60L22.09,45C24.72,43.06,7.93,74.11,7.93,74.11Z"/><path class="cls-5" d="M22.07,37.16S4.74,5.59,7.94,8.15L34.72,29.58C37,31.43,24.71,39.11,22.07,37.16Z"/><path class="cls-6" d="M34.7,52.78,22.09,45a4.9,4.9,0,0,0,0-7.86l12.65-7.58a9.76,9.76,0,0,1,3.67,7.63v7.93A9.77,9.77,0,0,1,34.7,52.78Z"/><circle class="cls-6" cx="251.39" cy="67.33" r="7.85"/></g></g></svg>